<svg width="24" height="24" viewBox="0 0 24 24" fill="none" xmlns="http://www.w3.org/2000/svg">
    <g clip-path="url(#clip0_85_3094)">
        <path d="M12 12L12 8" stroke="black" stroke-width="2" stroke-linecap="round" stroke-linejoin="round"/>
        <path d="M17.9896 18.7162C12.6655 24.0403 11.534 24.2399 5.63604 18.3419C-0.261933 12.4439 -0.0689104 11.3189 5.63604 5.61396C11.341 -0.0909886 12.2564 -0.49359 18.364 5.61396C24.4715 11.7215 24.2619 12.4439 17.9896 18.7162Z" stroke="black" stroke-width="2" stroke-linecap="round" stroke-linejoin="round"/>
        <path d="M12 16C12.2761 16 12.5 15.7761 12.5 15.5C12.5 15.2239 12.2761 15 12 15C11.7239 15 11.5 15.2239 11.5 15.5C11.5 15.7761 11.7239 16 12 16Z" fill="black" stroke="black" stroke-width="1.5" stroke-linecap="round" stroke-linejoin="round"/>
    </g>
    <defs>
        <clipPath id="clip0_85_3094">
            <rect width="24" height="24" fill="white"/>
        </clipPath>
    </defs>
</svg>
